HIERARCHY
ROOT Hips
{
	OFFSET 0.000000 0.000000 0.000000
	CHANNELS 6 Xposition Yposition Zposition Xrotation Yrotation Zrotation
	JOINT LeftUpLeg_virtual
	{
		OFFSET 0.000000 0.000000 0.000000
		CHANNELS 3 Xrotation Yrotation Zrotation
		JOINT LeftUpLeg
		{
			OFFSET 10.205400 -3.823500 0.155100
			CHANNELS 3 Xrotation Yrotation Zrotation
			JOINT LeftLeg
			{
				OFFSET 0.708757 -12.982077 0.567790
				CHANNELS 3 Xrotation Yrotation Zrotation
				JOINT LeftFoot
				{
					OFFSET -0.708756 -10.717838 -2.184338
					CHANNELS 3 Xrotation Yrotation Zrotation
					JOINT LeftToeBase
					{
						OFFSET 0.108149 -7.191104 7.560241
						CHANNELS 3 Xrotation Yrotation Zrotation
						JOINT LeftToe_End
						{
							OFFSET 0.070230 0.081724 4.490308
							CHANNELS 3 Xrotation Yrotation Zrotation
							End Site
							{
								OFFSET 0 0 0
							}
						}
					}
				}
			}
		}
	}
	JOINT RightUpLeg_virtual
	{
		OFFSET 0.000000 0.000000 0.000000
		CHANNELS 3 Xrotation Yrotation Zrotation
		JOINT RightUpLeg
		{
			OFFSET -10.205400 -3.823500 0.005500
			CHANNELS 3 Xrotation Yrotation Zrotation
			JOINT RightLeg
			{
				OFFSET -0.708756 -12.982134 0.610632
				CHANNELS 3 Xrotation Yrotation Zrotation
				JOINT RightFoot
				{
					OFFSET 0.708754 -10.717769 -1.945823
					CHANNELS 3 Xrotation Yrotation Zrotation
					JOINT RightToeBase
					{
						OFFSET -0.108140 -7.191069 7.372968
						CHANNELS 3 Xrotation Yrotation Zrotation
						JOINT RightToe_End
						{
							OFFSET -0.070227 0.081735 4.479403
							CHANNELS 3 Xrotation Yrotation Zrotation
							End Site
							{
								OFFSET 0 0 0
							}
						}
					}
				}
			}
		}
	}
	JOINT Spine_virtual
	{
		OFFSET 0.000000 0.000000 0.000000
		CHANNELS 3 Xrotation Yrotation Zrotation
		JOINT Spine
		{
			OFFSET 0.000000 6.876099 0.125700
			CHANNELS 3 Xrotation Yrotation Zrotation
			JOINT Spine1
			{
				OFFSET 0.000000 5.730043 0.104720
				CHANNELS 3 Xrotation Yrotation Zrotation
				JOINT Spine1_split
				{
					OFFSET 0.000000 5.730043 0.104720
					CHANNELS 3 Xrotation Yrotation Zrotation
					JOINT Spine2
					{
						OFFSET 0.000000 5.730043 0.104720
						CHANNELS 3 Xrotation Yrotation Zrotation
						JOINT Neck_virtual
						{
							OFFSET 0.000000 0.000000 0.000000
							CHANNELS 3 Xrotation Yrotation Zrotation
							JOINT Neck
							{
								OFFSET 0.000000 10.314075 0.188496
								CHANNELS 3 Xrotation Yrotation Zrotation
								JOINT Head
								{
									OFFSET 0.000000 7.643700 -2.377400
									CHANNELS 3 Xrotation Yrotation Zrotation
									JOINT HeadTop_End
									{
										OFFSET 0.000000 43.788605 -13.619600
										CHANNELS 3 Xrotation Yrotation Zrotation
										End Site
										{
											OFFSET 0 0 0
										}
									}
								}
							}
						}
						JOINT LeftShoulder_virtual
						{
							OFFSET 0.000000 0.000000 0.000000
							CHANNELS 3 Xrotation Yrotation Zrotation
							JOINT LeftShoulder
							{
								OFFSET 2.196100 4.412489 0.087492
								CHANNELS 3 Xrotation Yrotation Zrotation
								JOINT LeftShoulder_split
								{
									OFFSET 2.196100 4.412489 0.087492
									CHANNELS 3 Xrotation Yrotation Zrotation
									JOINT LeftArm
									{
										OFFSET 8.771219 -2.981674 -0.026999
										CHANNELS 3 Xrotation Yrotation Zrotation
										JOINT LeftForeArm
										{
											OFFSET 8.512804 0.000000 -0.000000
											CHANNELS 3 Xrotation Yrotation Zrotation
											JOINT LeftHand
											{
												OFFSET 18.484802 0.000000 -0.000000
												CHANNELS 3 Xrotation Yrotation Zrotation
												End Site
												{
													OFFSET 0 0 0
												}
											}
										}
									}
								}
							}
						}
						JOINT RightShoulder_virtual
						{
							OFFSET 0.000000 0.000000 0.000000
							CHANNELS 3 Xrotation Yrotation Zrotation
							JOINT RightShoulder
							{
								OFFSET -2.196100 4.412496 0.070690
								CHANNELS 3 Xrotation Yrotation Zrotation
								JOINT RightShoulder_split
								{
									OFFSET -2.196100 4.412496 0.070690
									CHANNELS 3 Xrotation Yrotation Zrotation
									JOINT RightArm
									{
										OFFSET -8.771282 -2.981682 -0.094208
										CHANNELS 3 Xrotation Yrotation Zrotation
										JOINT RightForeArm
										{
											OFFSET -8.494598 0.000000 0.000000
											CHANNELS 3 Xrotation Yrotation Zrotation
											JOINT RightHand
											{
												OFFSET -18.483803 0.000000 0.000001
												CHANNELS 3 Xrotation Yrotation Zrotation
												End Site
												{
													OFFSET 0 0 0
												}
											}
										}
									}
								}
							}
						}
					}
				}
			}
		}
	}
}
MOTION
Frames: 4
Frame Time: 0.03333333
-9.722735 34.335960 -5.898121 0.000000 0.000000 0.000000 -167.307396 -49.529971 -161.586416 -116.525513 -19.946222 3.479198 87.406757 -6.258902 -32.285621 55.335201 -16.786272 -24.013547 -0.342590 0.177200 0.138316 0.000000 0.000000 0.000000 -167.307396 -49.529971 -161.586416 -20.830533 30.998008 0.706409 31.499487 16.855319 -3.819341 -5.368276 10.842214 7.978585 -1.096026 1.398720 1.174442 0.000000 0.000000 0.000000 -167.307396 -49.529971 -161.586416 17.505657 0.688811 -1.894346 8.584655 -0.768881 -1.067717 0.000000 0.000000 0.000000 0.000000 0.000000 0.000000 8.613860 -0.684822 -1.055487 6.128093 42.115230 2.848585 7.484614 47.433891 -29.136938 0.000000 0.000000 0.000000 8.613860 -0.684822 -1.055487 -2.314321 -19.181511 9.645791 0.000000 0.000000 0.000000 -51.327348 -47.749511 -40.680610 -98.688761 -30.890538 -92.924792 0.000000 0.000000 0.000000 8.613860 -0.684822 -1.055487 -5.432977 22.644159 5.004599 0.000000 0.000000 0.000000 -52.631686 7.939683 23.713479 118.664182 44.432699 -113.869287 0.000000 0.000000 0.000000 
-10.514747 34.783718 -6.647108 0.000000 0.000000 0.000000 -166.756924 -45.464423 -160.728134 -120.372016 -19.824231 4.562315 84.897086 -5.805402 -32.803875 55.768225 -18.400540 -27.199350 -0.342525 0.177246 0.138250 0.000000 0.000000 0.000000 -166.756924 -45.464423 -160.728134 -17.130876 33.174509 0.713557 29.707177 17.567226 -3.868544 -5.152000 11.325623 6.861089 -1.095978 1.399191 1.174773 0.000000 0.000000 0.000000 -166.756924 -45.464423 -160.728134 18.240082 1.004577 -2.344123 9.182356 -0.573639 -1.355681 0.000000 0.000000 0.000000 0.000000 0.000000 0.000000 9.209422 -0.487397 -1.347778 7.658613 42.872551 1.900511 7.470979 48.226128 -29.784812 0.000000 0.000000 0.000000 9.209422 -0.487397 -1.347778 -1.708643 -18.296958 14.299378 0.000000 0.000000 0.000000 -63.045194 -44.076652 -47.688644 -98.832748 -33.423220 -92.650143 0.000000 0.000000 0.000000 9.209422 -0.487397 -1.347778 -3.961792 23.402304 0.011317 0.000000 0.000000 0.000000 -60.996738 6.507629 22.843713 122.036192 45.207041 -117.083321 0.000000 0.000000 0.000000 
-11.180996 35.183025 -7.317596 0.000000 0.000000 0.000000 -166.290080 -42.308886 -159.671122 -123.060147 -19.674370 5.226311 83.037519 -5.648908 -33.175851 56.119614 -20.002177 -30.584986 -0.342374 0.177227 0.138375 0.000000 0.000000 0.000000 -166.290080 -42.308886 -159.671122 -13.589286 35.071611 0.011795 28.670423 18.039739 -3.987683 -5.395272 11.617651 5.896979 -1.084033 1.399935 1.174776 0.000000 0.000000 0.000000 -166.290080 -42.308886 -159.671122 18.870015 1.256523 -2.780213 9.708554 -0.395320 -1.638885 0.000000 0.000000 0.000000 0.000000 0.000000 0.000000 9.733537 -0.305668 -1.637461 9.130946 43.449548 0.981559 7.466783 48.857207 -30.426850 0.000000 0.000000 0.000000 9.733537 -0.305668 -1.637461 -1.028381 -17.270444 19.673093 0.000000 0.000000 0.000000 -72.249488 -40.023665 -52.614108 -98.694642 -35.618514 -92.434009 0.000000 0.000000 0.000000 9.733537 -0.305668 -1.637461 -2.525903 24.010062 -4.580760 0.000000 0.000000 0.000000 -68.052276 4.123811 20.350900 124.815341 45.407805 -120.114628 0.000000 0.000000 0.000000 
-11.690845 35.482433 -7.858568 0.000000 0.000000 0.000000 -165.979539 -40.195530 -158.582485 -124.509349 -19.306291 5.286764 81.003769 -5.861916 -33.066138 56.011407 -21.919993 -35.287554 -0.342230 0.177197 0.138306 0.000000 0.000000 0.000000 -165.979539 -40.195530 -158.582485 -10.743744 36.606549 -1.019408 28.584193 18.217284 -4.035534 -6.100750 11.691614 5.014339 -1.066636 1.400363 1.174503 0.000000 0.000000 0.000000 -165.979539 -40.195530 -158.582485 19.368803 1.453710 -3.131870 10.126824 -0.273154 -1.885048 0.000000 0.000000 0.000000 0.000000 0.000000 0.000000 10.150081 -0.179300 -1.891159 10.501500 43.870322 0.106268 7.441623 49.342127 -31.015107 0.000000 0.000000 0.000000 10.150081 -0.179300 -1.891159 -0.494147 -16.339061 24.689843 0.000000 0.000000 0.000000 -78.602152 -36.343314 -55.543532 -98.313900 -37.504606 -92.293990 0.000000 0.000000 0.000000 10.150081 -0.179300 -1.891159 -1.304832 24.365395 -8.345083 0.000000 0.000000 0.000000 -73.690460 1.532260 16.866826 127.395035 45.463208 -123.298356 0.000000 0.000000 0.000000 
